<svg width="38" height="38" viewBox="0 0 38 38" fill="none" xmlns="http://www.w3.org/2000/svg">
    <path d="M18.3332 19.0887C22.5113 19.0887 25.8984 15.7016 25.8984 11.5235C25.8984 7.34531 22.5113 3.95825 18.3332 3.95825C14.155 3.95825 10.7679 7.34531 10.7679 11.5235C10.7679 15.7016 14.155 19.0887 18.3332 19.0887Z" stroke="black" stroke-width="1.67647" stroke-linecap="round" stroke-linejoin="round"/>
    <path fill-rule="evenodd" clip-rule="evenodd" d="M6.33328 29.6106C6.33124 29.0788 6.45018 28.5534 6.6811 28.0743C7.40573 26.6251 9.44921 25.857 11.1449 25.5092C12.3678 25.2482 13.6076 25.0737 14.855 24.9874C17.1645 24.7845 19.4874 24.7845 21.797 24.9874C23.0444 25.0748 24.2841 25.2492 25.5073 25.5092C27.2028 25.857 29.2463 26.5526 29.971 28.0743C30.4354 29.0509 30.4354 30.1847 29.971 31.1613C29.2463 32.6831 27.2028 33.3786 25.5073 33.7121C24.2857 33.9838 23.0455 34.163 21.797 34.2482C19.9173 34.4076 18.0287 34.4366 16.1448 34.3353C15.7101 34.3353 15.2898 34.3353 14.855 34.2482C13.6112 34.1641 12.3758 33.9849 11.1594 33.7121C9.44921 33.3786 7.42024 32.6831 6.6811 31.1613C6.45136 30.6767 6.33253 30.1469 6.33328 29.6106Z" stroke="black" stroke-width="1.67647" stroke-linecap="round" stroke-linejoin="round"/>
</svg>
